<svg viewBox="0 0 48 48" xmlns="http://www.w3.org/2000/svg"><g id="Fog" fill="#8dd6fd"><path d="m8.1 15h-3.1a1 1 0 0 1 0-2h3.1a1 1 0 0 1 0 2z"/><path d="m24 15h-1.13a1 1 0 0 1 0-2h1.13a1 1 0 0 1 0 2z"/><path d="m13.375 19h-8.375a1 1 0 0 1 0-2h8.375a1 1 0 0 1 0 2z"/><path d="m26 19h-5.4287a1 1 0 0 1 0-2h5.4287a1 1 0 0 1 0 2z"/><path d="m41 23h-10.5361a1 1 0 1 1 0-2h10.5361a1 1 0 0 1 0 2z"/><path d="m8.9644 23h-1.9644a1 1 0 0 1 0-2h1.9644a1 1 0 0 1 0 2z"/><path d="m11 27h-6a1 1 0 0 1 0-2h6a1 1 0 0 1 0 2z"/><path d="m43 27h-14a1 1 0 0 1 0-2h14a1 1 0 0 1 0 2z"/><path d="m41 31h-7.0361a1 1 0 0 1 0-2h7.0361a1 1 0 0 1 0 2z"/><path d="m28.1963 31h-11.25a1 1 0 0 1 0-2h11.25a1 1 0 0 1 0 2z"/><path d="m13.0356 31h-6.0356a1 1 0 0 1 0-2h6.0356a1 1 0 1 1 0 2z"/><path d="m29 35h-18a1 1 0 0 1 0-2h18a1 1 0 0 1 0 2z"/><path d="m43 35h-10a1 1 0 0 1 0-2h10a1 1 0 0 1 0 2z"/><path d="m6.9819 35h-1.9819a1 1 0 0 1 0-2h1.9819a1 1 0 1 1 0 2z"/><path d="m41 39h-3a1 1 0 0 1 0-2h3a1 1 0 0 1 0 2z"/><path d="m33.9639 39h-17.0176a1 1 0 0 1 0-2h17.0176a1 1 0 0 1 0 2z"/><path d="m13.0356 39h-6.0356a1 1 0 0 1 0-2h6.0356a1 1 0 1 1 0 2z"/><path d="m22.87 15a1 1 0 0 1 -.9687-.7534 2.9874 2.9874 0 0 0 -4.584-1.7227 1 1 0 0 1 -1.3193-.165 3.9954 3.9954 0 0 0 -6.917 1.8389 1 1 0 0 1 -1.961-.3956 5.9972 5.9972 0 0 1 9.796-3.3442 4.9907 4.9907 0 0 1 6.9234 3.2954 1 1 0 0 1 -.9694 1.2466z"/><path d="m43 19a1 1 0 0 1 -1-1 5 5 0 0 0 -9.1074-2.8506 1 1 0 0 1 -1.3408.2857 2.9546 2.9546 0 0 0 -1.5518-.4351 3.0033 3.0033 0 0 0 -3 3 1 1 0 0 1 -2 0 5.0059 5.0059 0 0 1 5-5 4.9249 4.9249 0 0 1 1.7861.3291 7 7 0 0 1 12.2139 4.6709 1 1 0 0 1 -1 1z"/><path d="m11 27a1 1 0 0 1 -1-1 6.9982 6.9982 0 0 1 13.1255-3.3828 1 1 0 1 1 -1.751.9658 4.9984 4.9984 0 0 0 -9.3745 2.417 1 1 0 0 1 -1 1z"/><path d="m29 27a1 1 0 0 1 -1-1 2.9965 2.9965 0 0 0 -5.0635-2.1729 1 1 0 1 1 -1.373-1.4541 4.9963 4.9963 0 0 1 8.4365 3.627 1 1 0 0 1 -1 1z"/><path d="m33 35a1 1 0 0 1 -1-1 1 1 0 0 0 -2 0 1 1 0 0 1 -2 0 3 3 0 0 1 6 0 1 1 0 0 1 -1 1z"/><path d="m31 12h-6a1 1 0 0 1 0-2h6a1 1 0 0 1 0 2z"/></g></svg>